<?xml version="1.0" standalone="no"?>
<!DOCTYPE svg PUBLIC "-//W3C//DTD SVG 20010904//EN"
 "http://www.w3.org/TR/2001/REC-SVG-20010904/DTD/svg10.dtd">
<svg version="1.0" xmlns="http://www.w3.org/2000/svg"
 width="192.000000pt" height="192.000000pt" viewBox="0 0 192.000000 192.000000"
 preserveAspectRatio="xMidYMid meet">
<metadata>
Created by potrace 1.14, written by Peter Selinger 2001-2017
</metadata>
<g transform="translate(0.000000,192.000000) scale(0.100000,-0.100000)"
fill="#000000" stroke="none">
<path d="M0 960 l0 -960 960 0 960 0 0 960 0 960 -960 0 -960 0 0 -960z m684
780 c66 -21 191 -97 235 -144 14 -14 29 -26 35 -26 6 0 43 26 81 57 136 110
278 156 360 118 92 -44 134 -199 105 -385 -6 -36 -13 -72 -15 -81 -4 -12 15
-23 78 -47 208 -79 321 -202 288 -315 -24 -81 -160 -187 -304 -236 -50 -17
-52 -19 -49 -52 1 -19 4 -95 5 -169 2 -127 0 -138 -24 -191 -33 -70 -75 -101
-143 -107 -87 -7 -206 48 -328 151 l-47 40 -35 -31 c-104 -91 -247 -162 -327
-162 -86 0 -147 51 -175 147 -13 44 -15 80 -10 167 3 61 8 127 12 147 5 34 4
37 -23 43 -15 4 -70 27 -121 52 -105 51 -192 128 -212 189 -43 130 80 262 316
339 l51 17 -13 67 c-30 152 -12 308 43 373 52 61 110 72 217 39z"/>
<path d="M541 1664 c-13 -9 -29 -32 -37 -50 -17 -40 -19 -211 -3 -283 9 -45
13 -50 32 -46 12 3 67 12 122 20 83 12 102 18 115 37 8 12 38 49 65 81 74 88
72 82 39 111 -53 47 -158 114 -207 130 -61 20 -96 20 -126 0z"/>
<path d="M1248 1666 c-20 -7 -54 -23 -75 -36 -48 -28 -153 -112 -153 -123 0
-4 24 -36 53 -70 28 -35 61 -76 72 -91 18 -25 30 -30 110 -41 50 -7 104 -15
121 -19 l32 -7 11 64 c24 136 9 264 -35 312 -26 29 -75 33 -136 11z"/>
<path d="M910 1394 c-25 -30 -46 -58 -47 -62 -2 -4 42 -7 97 -7 55 0 100 2
100 5 0 3 -24 31 -53 62 l-52 58 -45 -56z"/>
<path d="M808 1243 c-18 -5 -69 -81 -137 -205 l-43 -78 42 -77 c24 -43 62
-108 86 -145 l44 -68 153 0 c107 0 158 4 169 13 17 13 104 156 139 229 22 47
22 49 5 85 -9 21 -44 84 -78 140 -51 85 -65 102 -91 107 -33 7 -263 6 -289 -1z
m232 -145 c57 -39 75 -72 75 -137 0 -47 -5 -64 -27 -93 -121 -159 -365 -2
-267 172 43 76 150 104 219 58z"/>
<path d="M593 1217 c-29 -5 -53 -15 -53 -21 0 -18 43 -136 50 -136 3 0 14 15
23 33 9 17 30 56 47 85 l32 52 -24 -1 c-13 -1 -47 -6 -75 -12z"/>
<path d="M1231 1224 c21 -50 93 -164 100 -157 8 8 49 119 49 133 0 4 -19 10
-42 14 -24 4 -58 9 -77 13 -19 3 -32 2 -30 -3z"/>
<path d="M350 1147 c-236 -103 -271 -206 -110 -318 48 -34 208 -106 215 -97 1
2 12 30 24 63 12 33 32 84 43 113 l22 52 -22 53 c-11 28 -31 78 -42 110 -15
38 -27 57 -38 57 -9 0 -51 -15 -92 -33z"/>
<path d="M1451 1158 c-4 -13 -18 -49 -30 -81 -12 -32 -28 -72 -36 -88 -14 -27
-14 -32 8 -76 13 -27 34 -77 47 -111 22 -62 24 -64 53 -58 57 11 176 76 227
124 70 65 77 104 26 160 -48 52 -114 95 -199 127 -82 31 -85 31 -96 3z"/>
<path d="M1321 865 c-1 -6 -21 -46 -46 -89 -25 -44 -43 -82 -40 -84 3 -3 37 0
76 7 l71 13 -6 31 c-7 34 -54 138 -55 122z"/>
<path d="M570 818 c-11 -26 -23 -59 -26 -76 -7 -35 -1 -38 86 -48 71 -8 71
-19 1 100 l-40 70 -21 -46z"/>
<path d="M1389 636 c-2 -2 -53 -11 -114 -20 -92 -14 -112 -20 -125 -38 -8 -13
-42 -56 -74 -97 l-60 -74 35 -29 c134 -113 256 -162 321 -127 11 6 28 29 39
52 37 82 18 371 -22 333z"/>
<path d="M505 611 c-25 -81 -23 -269 4 -320 45 -84 177 -59 334 64 31 25 57
49 57 54 0 5 -26 40 -58 78 -32 38 -65 79 -73 90 -12 17 -35 24 -129 37 -139
20 -127 20 -135 -3z"/>
<path d="M958 590 l-97 -5 46 -55 c25 -30 50 -55 55 -55 11 0 104 113 97 118
-2 1 -48 0 -101 -3z"/>
</g>
</svg>
